<?xml version="1.0" encoding="UTF-8" standalone="no"?>
<svg
   version="1.1"
   x="0px"
   y="0px"
   viewBox="-10 -9 109.444 92.032464"
   id="svg1"
   sodipodi:docname="film.svg"
   width="196.99988"
   height="165.659"
   inkscape:version="1.3.2 (091e20e, 2023-11-25)"
   xmlns:inkscape="http://www.inkscape.org/namespaces/inkscape"
   xmlns:sodipodi="http://sodipodi.sourceforge.net/DTD/sodipodi-0.dtd"
   xmlns="http://www.w3.org/2000/svg"
   xmlns:svg="http://www.w3.org/2000/svg">
  <defs
     id="defs1" />
  <sodipodi:namedview
     id="namedview1"
     pagecolor="#ffffff"
     bordercolor="#000000"
     borderopacity="0.25"
     inkscape:showpageshadow="2"
     inkscape:pageopacity="0.0"
     inkscape:pagecheckerboard="0"
     inkscape:deskcolor="#d1d1d1"
     inkscape:zoom="1.888"
     inkscape:cx="44.226695"
     inkscape:cy="49.258475"
     inkscape:window-width="2056"
     inkscape:window-height="1257"
     inkscape:window-x="0"
     inkscape:window-y="44"
     inkscape:window-maximized="1"
     inkscape:current-layer="svg1" />
  <g
     transform="translate(-5.9999908,-965.36219)"
     id="g1">
    <path
       style="color:#000000;baseline-shift:baseline;enable-background:accumulate"
       d="m 7.8125091,965.36439 a 2.0002,2.0001406 0 0 0 -1.8125,1.99987 v 5.9999 a 2.0002,2.0001406 0 0 0 2,1.9999 h 5.9999999 v 3.9999 H 8.0000091 a 2.0002,2.0001406 0 0 0 -2,1.9999 v 41.99884 a 2.0002,2.0001406 0 0 0 2,1.9999 h 5.9999999 v 3.9999 H 8.0000091 a 2.0002,2.0001406 0 0 0 -2,1.9999 v 5.9999 a 2.0002,2.0001406 0 0 0 2,1.9999 H 92.000009 a 2.0002,2.0001406 0 0 0 2,-1.9999 v -5.9999 a 2.0002,2.0001406 0 0 0 -2,-1.9999 h -6 v -3.9999 h 6 a 2.0002,2.0001406 0 0 0 2,-1.9999 v -41.99884 a 2.0002,2.0001406 0 0 0 -2,-1.9999 h -6 v -3.9999 h 6 a 2.0002,2.0001406 0 0 0 2,-1.9999 v -5.9999 a 2.0002,2.0001406 0 0 0 -2,-1.99987 H 8.0000091 a 2.0002,2.0001406 0 0 0 -0.1875,0 z m 2.1874999,3.99987 h 80 v 1.9999 h -6 a 2.0002,2.0001406 0 0 0 -2,2 v 7.9997 a 2.0002,2.0001406 0 0 0 2,2 h 6 v 37.99884 h -6 a 2.0002,2.0001406 0 0 0 -2,2 v 7.9997 a 2.0002,2.0001406 0 0 0 2,2 h 6 v 1.9999 h -80 v -1.9999 h 6 a 2.0002,2.0001406 0 0 0 2,-2 v -7.9997 a 2.0002,2.0001406 0 0 0 -2,-2 h -6 v -37.99884 h 6 a 2.0002,2.0001406 0 0 0 2,-2 v -7.9997 a 2.0002,2.0001406 0 0 0 -2,-2 h -6 z m 13.8125,1.9999 a 2.0002,2.0001406 0 0 0 -1.8125,2 v 7.9997 a 2.0002,2.0001406 0 0 0 2,2 h 12 a 2.0002,2.0001406 0 0 0 2,-2 v -7.9997 a 2.0002,2.0001406 0 0 0 -2,-2 h -12 a 2.0002,2.0001406 0 0 0 -0.1875,0 z m 20,0 a 2.0002,2.0001406 0 0 0 -1.8125,2 v 7.9997 a 2.0002,2.0001406 0 0 0 2,2 h 12 a 2.0002,2.0001406 0 0 0 2,-2 v -7.9997 a 2.0002,2.0001406 0 0 0 -2,-2 h -12 a 2.0002,2.0001406 0 0 0 -0.1875,0 z m 20,0 a 2.0002,2.0001406 0 0 0 -1.8125,2 v 7.9997 a 2.0002,2.0001406 0 0 0 2,2 h 12 a 2.0002,2.0001406 0 0 0 2,-2 v -7.9997 a 2.0002,2.0001406 0 0 0 -2,-2 h -12 a 2.0002,2.0001406 0 0 0 -0.1875,0 z m -37.8125,3.9999 h 8 v 3.9999 h -8 z m 20,0 h 8 v 3.9999 h -8 z m 20,0 h 8 v 3.9999 h -8 z m -42.1875,45.99864 a 2.0002,2.0001406 0 0 0 -1.8125,2 v 7.9997 a 2.0002,2.0001406 0 0 0 2,2 h 12 a 2.0002,2.0001406 0 0 0 2,-2 v -7.9997 a 2.0002,2.0001406 0 0 0 -2,-2 h -12 a 2.0002,2.0001406 0 0 0 -0.1875,0 z m 20,0 a 2.0002,2.0001406 0 0 0 -1.8125,2 v 7.9997 a 2.0002,2.0001406 0 0 0 2,2 h 12 a 2.0002,2.0001406 0 0 0 2,-2 v -7.9997 a 2.0002,2.0001406 0 0 0 -2,-2 h -12 a 2.0002,2.0001406 0 0 0 -0.1875,0 z m 20,0 a 2.0002,2.0001406 0 0 0 -1.8125,2 v 7.9997 a 2.0002,2.0001406 0 0 0 2,2 h 12 a 2.0002,2.0001406 0 0 0 2,-2 v -7.9997 a 2.0002,2.0001406 0 0 0 -2,-2 h -12 a 2.0002,2.0001406 0 0 0 -0.1875,0 z m -37.8125,3.9999 h 8 v 3.9999 h -8 z m 20,0 h 8 v 3.9999 h -8 z m 20,0 h 8 v 3.9999 h -8 z"
       fill="#000000"
       fill-opacity="1"
       stroke="none"
       marker="none"
       visibility="visible"
       display="inline"
       overflow="visible"
       id="path1" />
  </g>
</svg>
